PathFileType	4	(X/Y/Z)	C:\Users\Basilio\Documents\Thesis Gigler\squatting_fais\c3dfiles\044\SLS_front_pre4\markers_experimental.trc
DataRate	CameraRate	NumFrames	NumMarkers	Units	OrigDataRate	OrigDataStartFrame	OrigNumFrames
200.000000	200.000000	4	60	mm	200.000000	646	1293
Frame#	Time	FHD			LBHD			RBHD			C7			T10			LSHO			LUUPA			LMUPA			LDUPA			LLEP			LMEP			LUL			LRFIN			RSHO			RUPA1			RMUPA			RDUPA			RLEP			RMEP			RUL			LASI			RASI			USACR			LSACR			RSACR			LTHI1			LTHI2			LTHI3			LTHI4			LLFC			LMFC			LTIB1			LTIB2			LTIB3			LTIB4			LLMAL			LMMAL			LHEE			LMT1			LMT2			LMT5			RTHI			RTHI2			RTHI3			RTHI4			RLFC			RMFC			RTIB1			RTIB2			RTIB3			RTIB4			RLMAL			RHEE			RMT1			RMT2			RMT5			RUFIN			CLAV			LRAD			RMMAL			
		X1	Y1	Z1	X2	Y2	Z2	X3	Y3	Z3	X4	Y4	Z4	X5	Y5	Z5	X6	Y6	Z6	X7	Y7	Z7	X8	Y8	Z8	X9	Y9	Z9	X10	Y10	Z10	X11	Y11	Z11	X12	Y12	Z12	X13	Y13	Z13	X14	Y14	Z14	X15	Y15	Z15	X16	Y16	Z16	X17	Y17	Z17	X18	Y18	Z18	X19	Y19	Z19	X20	Y20	Z20	X21	Y21	Z21	X22	Y22	Z22	X23	Y23	Z23	X24	Y24	Z24	X25	Y25	Z25	X26	Y26	Z26	X27	Y27	Z27	X28	Y28	Z28	X29	Y29	Z29	X30	Y30	Z30	X31	Y31	Z31	X32	Y32	Z32	X33	Y33	Z33	X34	Y34	Z34	X35	Y35	Z35	X36	Y36	Z36	X37	Y37	Z37	X38	Y38	Z38	X39	Y39	Z39	X40	Y40	Z40	X41	Y41	Z41	X42	Y42	Z42	X43	Y43	Z43	X44	Y44	Z44	X45	Y45	Z45	X46	Y46	Z46	X47	Y47	Z47	X48	Y48	Z48	X49	Y49	Z49	X50	Y50	Z50	X51	Y51	Z51	X52	Y52	Z52	X53	Y53	Z53	X54	Y54	Z54	X55	Y55	Z55	X56	Y56	Z56	X57	Y57	Z57	X58	Y58	Z58	X59	Y59	Z59	X60	Y60	Z60	

647	3.23	-200.9624481201172	1591.374267578125	-1072.6328125	-333.2707214355469	1551.731323242188	-1149.725952148438	-376.7333679199219	1535.573608398438	-989.880554199219	-397.3621215820314	1377.559448242188	-1072.031494140625	-473.9410705566407	1093.671020507813	-1032.83544921875	-307.4692687988282	1378.901123046875	-1215.009399414063	-147.7733001708985	1338.150634765625	-1311.986938476563	-119.340202331543	1349.246337890625	-1271.132446289063	-78.39974212646486	1327.838134765625	-1312.895629882813	-20.32120323181153	1323.029174804688	-1301.7236328125	-36.59441375732423	1248.257934570313	-1281.789184570313	233.8694763183594	1323.422729492188	-1185.823974609375	246.2997741699219	1345.86767578125	-1086.362182617188	-308.5412902832032	1384.8427734375	-918.6256103515627	-156.1217498779297	1354.2255859375	-817.8408813476565	-125.7034454345703	1364.528686523438	-857.2158203125002	-86.94249725341798	1347.52197265625	-815.8132324218752	-25.89140319824219	1344.881713867188	-825.9232177734377	-34.38141250610352	1264.620849609375	-835.3776855468752	227.2003631591797	1338.39794921875	-950.8936157226565	-346.6549377441407	874.4959106445315	-1117.1748046875	-341.5156250000001	882.1137695312502	-902.2568969726565	-507.2182922363282	932.2959594726565	-1004.017517089844	-518.3362426757814	899.2749633789065	-1027.45263671875	-516.1459960937501	905.973571777344	-973.0137329101565	-326.6376037597657	658.3854370117189	-1191.6708984375	-247.8274841308594	624.6750488281251	-1200.932373046875	-214.7168884277344	657.3213500976564	-1195.818237304688	-231.2262725830079	567.5369262695314	-1186.772827148438	-127.0580673217774	459.9822082519532	-1168.916137695313	-113.2658996582032	471.8425903320314	-1049.663452148438	-161.085678100586	308.7405700683594	-1060.978881835938	-209.6930389404297	266.7069702148438	-1121.331909179688	-180.1339111328125	257.2667541503907	-1082.830688476563	-231.377182006836	207.1421051025391	-1039.28466796875	-334.5662536621094	121.0435409545899	-1068.935180664063	-309.5255737304688	141.9882507324219	-986.5631103515627	-407.1961059570314	112.5462188720703	-1011.734436035156	-200.6376190185547	64.11047363281251	-987.745300292969	-199.6609191894532	60.3763885498047	-1035.0205078125	-238.7841186523438	45.14816284179688	-1080.982421875	-238.0114898681641	694.1549682617189	-806.9492187500002	-170.6376953125	707.1287231445314	-809.8687133789065	-158.0594635009766	736.8302001953126	-822.667663574219	-112.6660690307617	646.0989990234376	-824.475036621094	-28.69341468811036	587.2866821289064	-827.5798339843752	-31.81196594238282	569.3997192382814	-945.7573852539065	75.48136138916017	501.3307495117189	-849.9394531250002	49.21838378906251	408.2901611328126	-794.6102294921877	87.91603851318361	420.9161987304689	-815.255310058594	120.8539962768555	379.4238891601563	-837.602966308594	138.6284942626953	214.7934112548829	-807.6530761718752	118.1240844726563	140.2463684082032	-844.8341064453127	288.8024902343751	259.6097106933594	-882.3836669921877	294.4848632812501	268.5764770507813	-845.7627563476565	278.5104980468751	236.1586914062501	-788.7298583984377	240.8756408691407	1319.518676757813	-1065.444580078125	-265.6851806640626	1319.485229492188	-1070.7509765625	219.1790008544922	1278.9013671875	-1132.667724609375	150.5650787353516	224.0432586669922	-892.8201904296877	
648	3.235	-201.0130767822266	1590.962646484375	-1072.569946289063	-333.2796020507813	1551.489868164063	-1149.784423828125	-376.7394714355469	1535.368286132813	-989.8033447265627	-397.3113403320314	1377.379760742188	-1072.058837890625	-473.9386291503907	1093.56005859375	-1032.813354492188	-307.6209106445313	1378.7001953125	-1214.991088867188	-147.8695068359375	1337.930419921875	-1312.093994140625	-119.4443130493164	1348.906127929688	-1271.252563476563	-78.42775726318361	1327.6943359375	-1313.02392578125	-20.34874153137207	1322.731689453125	-1301.891967773438	-36.60746765136719	1247.903686523438	-1281.942993164063	233.5066375732422	1323.284057617188	-1185.910766601563	246.2921447753907	1346.223999023438	-1086.713256835938	-308.4349670410157	1384.607177734375	-918.637878417969	-155.8636169433594	1353.629638671875	-817.872985839844	-125.5610427856446	1364.311401367188	-857.3096313476565	-86.90345001220705	1347.386596679688	-815.852966308594	-25.79317283630372	1344.692749023438	-826.0744628906252	-34.37818908691407	1264.333618164063	-835.4724731445315	227.2601928710938	1338.261352539063	-951.0495605468752	-346.7636413574219	874.3319091796877	-1117.188842773438	-341.3384094238282	881.821228027344	-902.2803955078127	-507.1566467285157	932.1321411132815	-1003.927856445313	-518.2962646484376	899.0849609375002	-1027.367553710938	-515.9752807617189	905.7212524414065	-972.9246215820315	-326.7196960449219	658.3319091796876	-1191.838256835938	-247.9638671875001	624.6612548828126	-1201.121704101563	-214.8281402587891	657.1694946289064	-1196.061279296875	-231.3228912353516	567.3449096679689	-1187.076049804688	-126.9847640991211	459.9469604492189	-1169.460815429688	-113.1915130615235	471.7997131347657	-1050.161010742188	-161.1313781738282	308.6710510253907	-1061.332885742188	-209.7427520751954	266.6588134765626	-1121.546020507813	-180.0766296386719	257.0959472656251	-1083.087524414063	-231.3840942382813	207.089584350586	-1039.514892578125	-334.4857788085938	121.053466796875	-1068.956298828125	-309.5038146972657	142.1400451660157	-986.6525878906252	-407.1723022460939	112.5847930908203	-1011.761352539063	-200.6365966796876	64.09169006347658	-987.7749023437502	-199.611557006836	60.30631637573244	-1035.086669921875	-238.7143707275391	45.06915283203126	-1081.01708984375	-237.8876953125001	694.1318359375001	-806.989685058594	-170.4553985595703	707.0632934570314	-809.672302246094	-157.9453582763672	736.6535034179689	-822.5396728515627	-112.6409454345703	646.2324218750001	-824.2800903320315	-28.44985580444337	587.2589721679689	-827.4175415039065	-31.32849884033204	569.3446655273439	-945.651306152344	75.90047454833986	501.4388732910157	-849.6194458007815	49.6770477294922	408.4959411621095	-794.2024536132815	88.23504638671876	421.002899169922	-815.042663574219	121.4341583251953	379.6486816406251	-837.2852783203127	139.1368408203125	214.9143676757813	-807.212829589844	118.7222137451172	140.7835540771485	-844.8449707031252	289.8007507324219	260.1699218750001	-881.9844970703127	295.4302368164063	269.8738098144532	-844.8916625976565	279.3928527832032	236.5543518066407	-788.374938964844	240.7837677001954	1319.418701171875	-1065.628295898438	-265.6939086914063	1319.274169921875	-1070.78173828125	219.1345977783204	1278.63623046875	-1132.8935546875	151.2173919677735	224.2032775878907	-892.5374145507815	
649	3.24	-201.9534149169922	1591.26220703125	-1072.93408203125	-333.2436218261719	1551.391479492188	-1149.9013671875	-376.7110290527344	1535.1435546875	-989.7998657226565	-397.3753662109376	1377.173706054688	-1072.111694335938	-473.9217224121095	1093.34033203125	-1032.735717773438	-307.6289978027344	1378.48828125	-1215.021728515625	-148.0464019775391	1337.7080078125	-1312.2060546875	-119.5237655639649	1348.792724609375	-1271.33837890625	-78.65469360351564	1327.428466796875	-1313.034057617188	-20.55183792114258	1322.540405273438	-1302.052001953125	-36.95912551879884	1247.66943359375	-1281.658203125	233.8654785156251	1323.12109375	-1186.312744140625	246.2529907226563	1346.1142578125	-1086.930908203125	-308.3382873535157	1384.37109375	-918.776550292969	-156.0621948242188	1353.973510742188	-817.9495239257815	-125.517318725586	1364.055786132813	-857.3376464843752	-86.82624816894533	1347.184936523438	-815.9888305664065	-25.68784332275391	1344.486083984375	-826.167175292969	-34.26733398437501	1264.306762695313	-835.9044189453127	227.2649841308594	1338.077880859375	-951.1616210937502	-347.4662170410157	874.4306640625002	-1116.96435546875	-341.1317138671876	881.5598144531252	-902.2537841796877	-507.0572204589845	931.8929443359377	-1003.848266601563	-518.4013061523439	898.931579589844	-1027.235961914063	-515.5192260742189	905.4213867187502	-972.8026123046877	-326.7519531250001	658.2669677734376	-1191.960327148438	-248.1098937988282	624.6258544921876	-1201.275512695313	-214.8611907958985	657.1286621093751	-1196.396728515625	-231.4052886962891	567.1568603515626	-1187.373901367188	-126.9480667114258	459.9370727539064	-1169.888549804688	-113.1437454223633	471.7767944335939	-1050.859619140625	-161.1375122070313	308.6702270507813	-1061.552124023438	-209.8077392578126	266.6177978515626	-1121.910522460938	-179.8138122558594	257.1036987304688	-1083.649169921875	-231.4320220947266	207.1210479736329	-1039.7021484375	-334.4651184082032	121.0481719970703	-1069.035888671875	-309.4590759277344	142.1609954833985	-986.7478637695315	-407.030731201172	112.2379455566407	-1011.534790039063	-200.6510314941407	64.11861419677736	-987.751892089844	-199.6737365722657	60.3057327270508	-1035.161376953125	-238.7712707519532	45.04273223876954	-1081.027954101563	-237.6487731933594	693.9798583984376	-806.8926391601565	-170.3221435546875	706.9909057617189	-809.5798339843752	-157.8104705810547	736.7004394531251	-822.4329223632815	-112.5096206665039	646.2117309570314	-824.1791992187502	-28.13180732727051	587.1550903320314	-827.1787109375002	-30.83252525329591	569.3439941406251	-945.5925903320315	76.15013122558595	501.5084533691407	-849.0212402343752	50.22066879272462	408.5338134765626	-793.811462402344	88.7278518676758	421.171112060547	-814.7764892578127	121.8466796875	379.7608947753907	-836.8560180664065	139.9921569824219	215.0623626708985	-806.8594970703127	119.4949569702149	141.270980834961	-844.343200683594	290.1405944824219	260.4575805664063	-881.6323852539065	295.9063110351563	269.5190429687501	-844.598815917969	279.9776000976563	236.8000488281251	-787.866638183594	240.2424621582032	1320.463256835938	-1065.834594726563	-265.6768493652344	1319.035522460938	-1070.84619140625	218.9871978759766	1278.350463867188	-1133.077026367188	152.0687408447266	224.3852996826172	-892.0346679687502	
650	3.245	-201.9115142822266	1590.68408203125	-1073.064819335938	-333.2785339355469	1551.101318359375	-1149.87939453125	-376.6917114257813	1534.888427734375	-989.8978271484377	-397.4002380371095	1376.913452148438	-1072.1181640625	-473.7704467773439	1093.1171875	-1032.677368164063	-307.7659301757813	1378.403076171875	-1215.022705078125	-148.2621307373047	1337.388793945313	-1312.286010742188	-119.6152496337891	1348.531982421875	-1271.421264648438	-78.65332794189455	1327.245361328125	-1313.218627929688	-20.61248588562012	1322.390625	-1302.224243164063	-37.04460906982423	1247.563354492188	-1281.739624023438	233.7884979248047	1322.965454101563	-1186.47607421875	246.1815948486329	1345.956176757813	-1087.326538085938	-308.1401062011719	1384.105102539063	-918.799499511719	-155.8455047607422	1353.496948242188	-817.934265136719	-125.5213775634766	1363.939575195313	-857.414978027344	-86.64666748046876	1346.97216796875	-816.137878417969	-25.66977310180665	1344.465087890625	-826.384460449219	-34.14151000976563	1264.0302734375	-836.0699462890627	227.2420959472657	1337.928588867188	-951.2947998046877	-347.3923339843751	874.2405395507815	-1117.085083007813	-340.8719787597657	881.3084106445315	-902.3156738281252	-506.991424560547	931.7786254882815	-1003.721130371094	-518.3920288085939	898.6646728515627	-1027.09765625	-515.4228515625001	905.3831176757815	-972.7036743164065	-326.9084472656251	658.2337646484376	-1192.099731445313	-248.0384521484376	624.4040527343751	-1201.824951171875	-214.9341430664063	657.0789794921876	-1196.705078125	-231.5001831054688	567.1166381835939	-1187.657348632813	-126.9705505371094	459.7309875488282	-1170.27294921875	-113.0049057006836	471.7218322753907	-1051.284545898438	-161.1316528320313	308.5869140625001	-1061.837280273438	-209.7130584716797	266.5765075683594	-1122.194213867188	-179.7899017333985	256.9700317382813	-1083.989868164063	-231.3919677734376	207.1060485839844	-1039.866088867188	-334.5426940917969	121.0606994628907	-1069.167846679688	-309.4530334472657	142.1908874511719	-986.8538208007815	-407.1552734375001	112.6600799560547	-1011.836364746094	-200.5657653808594	64.11161041259767	-987.8979492187502	-199.6556549072266	60.26477813720705	-1035.3037109375	-238.771713256836	44.99834823608399	-1081.049438476563	-237.5292205810547	693.9827880859376	-806.9193115234377	-170.1665802001953	707.0589599609376	-809.771667480469	-157.6483306884766	736.4706420898439	-822.3879394531252	-112.4122085571289	646.2567138671876	-824.0730590820315	-27.98600387573243	587.1442871093751	-826.8856201171877	-30.62273597717286	569.2608642578126	-945.4380493164065	76.42749023437501	501.6241760253907	-848.843444824219	50.75016403198244	408.6111450195314	-793.497985839844	89.2918167114258	421.2789306640626	-814.4746704101565	122.3382644653321	379.8845520019532	-836.559265136719	140.7505798339844	215.5912170410157	-806.6951293945315	120.7220764160157	140.94189453125	-843.7200317382815	290.8416137695313	261.0241394042969	-880.9942016601565	296.5413513183594	269.7115478515626	-843.7945556640627	280.8964843750001	237.5196380615235	-787.405456542969	240.1492614746094	1320.374755859375	-1066.018920898438	-265.7029724121094	1318.909423828125	-1070.918579101563	218.9406433105469	1278.529907226563	-1133.3046875	152.8433685302735	224.6308288574219	-891.577331542969	
